<svg xmlns="http://www.w3.org/2000/svg" xmlns:xlink="http://www.w3.org/1999/xlink" viewBox="0 0 512 512"><defs><linearGradient id="linear-gradient" x1="-425.75" y1="641" x2="-424.92" y2="641" gradientTransform="matrix(311.4, 532.87, 532.87, -311.4, -208854.94, 426526.9)" gradientUnits="userSpaceOnUse"><stop offset="0" stop-color="#131c21"/><stop offset="1" stop-color="#090e11"/></linearGradient></defs><g id="Layer_1" data-name="Layer 1"><path d="M512,75A75.15,75.15,0,0,0,436.81,0H75A75,75,0,0,0,0,75V437a75.11,75.11,0,0,0,75,75H436.81A75.29,75.29,0,0,0,512,436.81Z" transform="translate(0)" style="fill:url(#linear-gradient)"/></g><g id="Layer_2" data-name="Layer 2"><rect x="80.6" y="81.15" width="349.85" height="349.85" style="fill:none"/><path d="M115.52,348.8c-66.62-73.91-63.6-187.51,7.56-258.67,73.5-73.5,192.71-73.51,266.23,0s73.5,192.73,0,266.23L277.37,468.3a30.12,30.12,0,0,1-42.35,0ZM287.45,146.23h-107a32,32,0,0,0-32.09,32.09v81.29a32,32,0,0,0,32.09,32.09h107a32,32,0,0,0,32.09-32.09V178.32A32,32,0,0,0,287.45,146.23Zm80.94,19.26L334.2,191.05a14.1,14.1,0,0,0-6.46,13.24v28.82c.08,6.88,2.58,10.34,7.09,14.26l33.56,25.08a6.24,6.24,0,0,0,10.7-4.28V169.76C379.09,164.38,372.26,161.68,368.39,165.49Z" transform="translate(0)" style="fill:#00af9c;fill-rule:evenodd"/></g></svg>