<svg viewBox="0 0 8 8" xmlns="http://www.w3.org/2000/svg"><defs><linearGradient y1="0.068" x2="0.811" id="a" y2="0.939" x1="0.302" gradientUnits="objectBoundingBox"><stop offset="0" stop-color="#2c3e50"/><stop offset="1"/></linearGradient></defs><path xmlns="http://www.w3.org/2000/svg" d="M7.553,1.107c0,-0.611 -0.496,-1.107 -1.107,-1.107l-5.339,0c-0.611,0 -1.107,0.496 -1.107,1.107l0,5.339c0,0.611 0.496,1.107 1.107,1.107l5.339,0c0.611,0 1.107,-0.496 1.107,-1.107l0,-5.339Z" fill="url(#a)"/><path d="M1.895,6.605c-0.287,-0.055 -0.506,-0.302 -0.506,-0.547l0,-4.683c0,-0.246 0.199,-0.444 0.444,-0.444c0.244,0 0.442,0.198 0.442,0.444l0,4.449c0.606,-0.215 1.821,-0.459 1.908,-0.958c0.135,-0.779 -1.743,-1.1 -1.616,-1.66c0.081,-0.353 1.692,-0.994 1.949,-1.313c0.187,-0.233 -0.655,-0.6 -0.537,-0.675c0.133,-0.084 1.537,-0.323 1.91,0.054c0.397,0.401 0.284,1.466 0.155,1.656c-0.128,0.19 -0.602,-0.517 -0.829,-0.468c-0.315,0.067 -1.403,0.601 -1.458,0.811c-0.056,0.21 0.614,0.255 0.998,0.608c0.194,0.18 0.466,0.619 0.385,1.034c-0.072,0.373 -0.478,0.729 -0.643,0.856c-0.418,0.325 -1.051,0.526 -1.389,0.626c-0.58,0.172 -0.927,0.267 -1.213,0.21Z" fill="#fff"/></svg>