<?xml version="1.0" encoding="UTF-8" standalone="no"?><!DOCTYPE svg PUBLIC "-//W3C//DTD SVG 1.1//EN" "http://www.w3.org/Graphics/SVG/1.1/DTD/svg11.dtd"><svg width="100%" height="100%" viewBox="0 0 4 4" version="1.1" xmlns="http://www.w3.org/2000/svg" xmlns:xlink="http://www.w3.org/1999/xlink" xml:space="preserve" xmlns:serif="http://www.serif.com/" style="fill-rule:evenodd;clip-rule:evenodd;stroke-linejoin:round;stroke-miterlimit:1.41421;"><path d="M3.187,0.467c0,-0.258 -0.21,-0.467 -0.468,-0.467l-2.252,0c-0.258,0 -0.467,0.209 -0.467,0.467l0,2.253c0,0.257 0.209,0.467 0.467,0.467l2.252,0c0.258,0 0.468,-0.21 0.468,-0.468l0,-2.252l0,-0.001Z" style="fill:url(#_Linear1);fill-rule:nonzero;"/><path d="M0.868,2.683c-0.11,-0.021 -0.195,-0.116 -0.195,-0.211l0,-1.804c0,-0.094 0.077,-0.171 0.172,-0.171c0.094,0 0.17,0.077 0.17,0.171l0,1.714c0.234,-0.082 0.701,-0.176 0.735,-0.369c0.052,-0.3 -0.672,-0.424 -0.622,-0.64c0.03,-0.135 0.651,-0.382 0.751,-0.506c0.072,-0.089 -0.253,-0.23 -0.207,-0.259c0.051,-0.032 0.592,-0.125 0.736,0.02c0.152,0.156 0.109,0.566 0.059,0.638c-0.049,0.074 -0.232,-0.198 -0.319,-0.18c-0.122,0.026 -0.541,0.231 -0.562,0.313c-0.022,0.081 0.237,0.098 0.384,0.234c0.076,0.069 0.18,0.238 0.149,0.398c-0.028,0.144 -0.184,0.281 -0.248,0.33c-0.161,0.125 -0.405,0.203 -0.535,0.242c-0.223,0.066 -0.357,0.102 -0.468,0.08Z" style="fill:#fff;fill-rule:nonzero;"/><defs><linearGradient id="_Linear1" x1="0" y1="0" x2="1" y2="0" gradientUnits="userSpaceOnUse" gradientTransform="matrix(1.62189,2.77537,-2.77537,1.62189,0.962295,0.216676)"><stop offset="0" style="stop-color:#2c3e50;stop-opacity:1"/><stop offset="1" style="stop-color:#000;stop-opacity:1"/></linearGradient></defs></svg>