<?xml version="1.0" encoding="UTF-8" standalone="no"?><!DOCTYPE svg PUBLIC "-//W3C//DTD SVG 1.1//EN" "http://www.w3.org/Graphics/SVG/1.1/DTD/svg11.dtd"><svg width="100%" height="100%" viewBox="0 0 5 5" version="1.1" xmlns="http://www.w3.org/2000/svg" xmlns:xlink="http://www.w3.org/1999/xlink" xml:space="preserve" xmlns:serif="http://www.serif.com/" style="fill-rule:evenodd;clip-rule:evenodd;stroke-linejoin:round;stroke-miterlimit:1.41421;"><path d="M4.249,0.622c0,-0.343 -0.279,-0.622 -0.623,-0.622l-3.003,0c-0.344,0 -0.623,0.279 -0.623,0.622l0,3.004c0,0.344 0.279,0.623 0.623,0.623l3.003,0c0.344,0 0.623,-0.279 0.623,-0.623l0,-3.003Z" style="fill:url(#_Linear1);fill-rule:nonzero;"/><path d="M1.217,3.487c-0.138,-0.026 -0.244,-0.145 -0.244,-0.263l0,-2.257c0,-0.118 0.096,-0.214 0.215,-0.214c0.117,0 0.213,0.096 0.213,0.214l0,2.144c0.292,-0.103 0.877,-0.221 0.919,-0.462c0.065,-0.375 -0.84,-0.53 -0.778,-0.8c0.038,-0.17 0.815,-0.479 0.939,-0.633c0.09,-0.112 -0.316,-0.288 -0.259,-0.325c0.064,-0.04 0.741,-0.156 0.921,0.026c0.191,0.194 0.137,0.707 0.074,0.798c-0.061,0.092 -0.29,-0.248 -0.399,-0.225c-0.152,0.032 -0.677,0.289 -0.703,0.391c-0.027,0.101 0.296,0.122 0.481,0.293c0.094,0.086 0.224,0.298 0.186,0.498c-0.035,0.18 -0.231,0.351 -0.31,0.413c-0.202,0.156 -0.507,0.253 -0.67,0.302c-0.279,0.083 -0.446,0.128 -0.585,0.1Z" style="fill:#fff;fill-rule:nonzero;"/><defs><linearGradient id="_Linear1" x1="0" y1="0" x2="1" y2="0" gradientUnits="userSpaceOnUse" gradientTransform="matrix(2.16252,3.7005,-3.7005,2.16252,1.28306,0.288902)"><stop offset="0" style="stop-color:#2c3e50;stop-opacity:1"/><stop offset="1" style="stop-color:#000;stop-opacity:1"/></linearGradient></defs></svg>