<svg viewBox="0 0 6 6" xmlns="http://www.w3.org/2000/svg" fill-rule="evenodd" clip-rule="evenodd" stroke-linejoin="round" stroke-miterlimit="1.41421"><path d="M5.665,0.83c0,-0.458 -0.372,-0.83 -0.83,-0.83l-4.005,0c-0.458,0 -0.83,0.372 -0.83,0.83l0,4.005c0,0.458 0.372,0.83 0.83,0.83l4.005,0c0.458,0 0.83,-0.372 0.83,-0.83l0,-4.005Z" fill="url(#_Linear1)" fill-rule="nonzero"/><path d="M1.501,4.833c-0.203,-0.039 -0.358,-0.213 -0.358,-0.387l0,-3.312c0,-0.174 0.141,-0.314 0.315,-0.314c0.172,0 0.312,0.14 0.312,0.314l0,3.147c0.429,-0.152 1.288,-0.325 1.35,-0.678c0.095,-0.551 -1.233,-0.778 -1.143,-1.174c0.057,-0.25 1.197,-0.703 1.378,-0.929c0.133,-0.165 -0.463,-0.424 -0.379,-0.477c0.094,-0.06 1.087,-0.229 1.351,0.038c0.281,0.284 0.201,1.037 0.109,1.171c-0.09,0.135 -0.425,-0.365 -0.586,-0.331c-0.223,0.048 -0.993,0.425 -1.031,0.574c-0.04,0.148 0.434,0.18 0.706,0.43c0.137,0.127 0.329,0.438 0.272,0.731c-0.051,0.264 -0.338,0.516 -0.455,0.606c-0.296,0.23 -0.743,0.372 -0.983,0.443c-0.41,0.122 -0.655,0.189 -0.858,0.148Z" fill="#fff" fill-rule="nonzero"/><defs><linearGradient id="_Linear1" x1="0" y1="0" x2="1" y2="0" gradientUnits="userSpaceOnUse" gradientTransform="matrix(2.88336,4.934,-4.934,2.88336,1.71075,0.385203)"><stop offset="0" stop-color="#2c3e50" stop-opacity="1"/><stop offset="1" stop-color="#000" stop-opacity="1"/></linearGradient></defs></svg>