<svg viewBox="0 0 512 512" xmlns="http://www.w3.org/2000/svg" fill-rule="evenodd" clip-rule="evenodd" stroke-linejoin="round" stroke-miterlimit="1.41421"><path d="M303,319c-4.095,0 -8.189,-1.562 -11.313,-4.687l-94,-94c-6.249,-6.248 -6.249,-16.379 0,-22.627c6.248,-6.249 16.379,-6.249 22.627,0l94,94c6.249,6.248 6.249,16.379 0,22.627c-3.125,3.125 -7.219,4.687 -11.314,4.687Z" fill="#fff" fill-rule="nonzero"/><path d="M144.003,384c-4.167,0 -8.258,-1.628 -11.317,-4.687c-4.525,-4.526 -5.919,-11.313 -3.542,-17.256l64,-160c1.626,-4.065 4.848,-7.287 8.913,-8.913l160,-64c5.944,-2.377 12.73,-0.983 17.256,3.542c4.525,4.526 5.919,11.313 3.542,17.256l-64,160c-1.626,4.065 -4.848,7.287 -8.913,8.913l-160,64c-1.926,0.771 -3.941,1.145 -5.939,1.145Zm76.306,-163.691l-47.588,118.97l118.97,-47.588l47.588,-118.97l-118.97,47.588Z" fill="#fff" fill-rule="nonzero"/><path d="M256,512c-68.38,0 -132.667,-26.628 -181.02,-74.98c-48.353,-48.352 -74.98,-112.64 -74.98,-181.02c0,-68.38 26.628,-132.667 74.98,-181.02c48.352,-48.353 112.64,-74.98 181.02,-74.98c68.38,0 132.667,26.628 181.02,74.98c48.353,48.352 74.98,112.64 74.98,181.02c0,68.38 -26.628,132.667 -74.98,181.02c-48.352,48.353 -112.64,74.98 -181.02,74.98Zm0,-480c-123.514,0 -224,100.486 -224,224c0,123.514 100.486,224 224,224c123.514,0 224,-100.486 224,-224c0,-123.514 -100.486,-224 -224,-224Z" fill="#fff" fill-rule="nonzero"/></svg>