<svg viewBox="0 0 384 360" xmlns="http://www.w3.org/2000/svg" fill-rule="evenodd" clip-rule="evenodd" stroke-linejoin="round" stroke-miterlimit="1.41421"><path d="M287.247,324.747c0,-9.182 0,-306.099 0,-313.497c0,-6.213 -5.037,-11.25 -11.25,-11.25l-264.747,0c-6.213,0 -11.25,5.037 -11.25,11.25l0,290.997c0,31.016 25.234,56.249 56.249,56.249l242.279,0c-7.079,-9.408 -11.281,-21.097 -11.281,-33.749Zm-227.248,-108.749l36,0c6.213,0 11.25,5.037 11.25,11.25c0,6.213 -5.037,11.25 -11.25,11.25l-36,0c-6.213,0 -11.249,-5.037 -11.249,-11.25c0,-6.213 5.036,-11.25 11.249,-11.25Zm-11.249,-36.75c0,-6.213 5.036,-11.25 11.249,-11.25l36,0c6.213,0 11.25,5.037 11.25,11.25c0,6.213 -5.037,11.25 -11.25,11.25l-36,0c-6.213,0 -11.249,-5.037 -11.249,-11.25Zm179.248,125.249l-167.999,0c-6.213,0 -11.249,-5.037 -11.249,-11.25c0,-6.213 5.036,-11.25 11.249,-11.25l167.999,0c6.213,0 11.25,5.037 11.25,11.25c0,6.213 -5.037,11.25 -11.25,11.25Zm11.25,-59.249c0,6.213 -5.037,11.249 -11.25,11.249l-83.999,0c-6.213,0 -11.25,-5.036 -11.25,-11.249l0,-84c0,-6.213 5.037,-11.249 11.25,-11.249l83.999,0c6.213,0 11.25,5.036 11.25,11.249l0,84Zm-11.25,-120.749l-167.999,0c-6.213,0 -11.249,-5.037 -11.249,-11.25c0,-6.213 5.036,-11.25 11.249,-11.25l167.999,0c6.213,0 11.25,5.037 11.25,11.25c0,6.213 -5.037,11.25 -11.25,11.25Zm0,-48l-167.999,0c-6.213,0 -11.249,-5.037 -11.249,-11.25c0,-6.213 5.036,-11.25 11.249,-11.25l167.999,0c6.213,0 11.25,5.037 11.25,11.25c0,6.213 -5.037,11.25 -11.25,11.25Z" fill="#fff" fill-rule="nonzero"/><rect x="155.248" y="172.498" width="61.499" height="61.499" fill="#fff" fill-rule="nonzero"/><path d="M372.746,77.999l-62.999,0c0,254.917 -0.038,246.755 0.067,246.755c0.971,15.706 11.705,28.76 26.205,33.185c23.194,7.077 46.975,-9.702 47.94,-34.014c0.058,0 0.037,5.62 0.037,-234.676c0,-6.213 -5.037,-11.25 -11.25,-11.25Z" fill="#fff" fill-rule="nonzero"/></svg>