<svg viewBox="0 0 384 359" xmlns="http://www.w3.org/2000/svg" fill-rule="evenodd" clip-rule="evenodd" stroke-linejoin="round" stroke-miterlimit="1.41421"><path d="M372.75,78l-85.5,0l0,-66.75c0,-6.213 -5.037,-11.25 -11.25,-11.25l-264.75,0c-6.213,0 -11.25,5.037 -11.25,11.25l0,291c0,31.016 25.234,56.25 56.25,56.25l271.5,0c31.016,0 56.25,-25.234 56.25,-56.25l0,-213c0,-6.213 -5.037,-11.25 -11.25,-11.25Zm-316.5,258c-18.61,0 -33.75,-15.14 -33.75,-33.75l0,-279.75l242.25,0c0,297.35 -0.142,280.818 0.258,285.058c0.978,10.429 4.868,20.264 11.018,28.442l-219.776,0Zm305.25,-33.75c0,18.61 -15.14,33.75 -33.75,33.75c-2.524,0 -4.271,0 -6.75,0c-18.61,0 -33.75,-15.14 -33.75,-33.75l0,-201.75l74.25,0l0,201.75Z" fill="#fff" fill-rule="nonzero"/><path d="M228,54l-168,0c-6.213,0 -11.25,5.037 -11.25,11.25c0,6.213 5.037,11.25 11.25,11.25l168,0c6.213,0 11.25,-5.037 11.25,-11.25c0,-6.213 -5.037,-11.25 -11.25,-11.25Z" fill="#fff" fill-rule="nonzero"/><path d="M228,102l-168,0c-6.213,0 -11.25,5.037 -11.25,11.25c0,6.213 5.037,11.25 11.25,11.25l168,0c6.213,0 11.25,-5.037 11.25,-11.25c0,-6.213 -5.037,-11.25 -11.25,-11.25Z" fill="#fff" fill-rule="nonzero"/><path d="M228,282l-168,0c-6.213,0 -11.25,5.037 -11.25,11.25c0,6.213 5.037,11.25 11.25,11.25l168,0c6.213,0 11.25,-5.037 11.25,-11.25c0,-6.213 -5.037,-11.25 -11.25,-11.25Z" fill="#fff" fill-rule="nonzero"/><path d="M228,150l-84,0c-6.213,0 -11.25,5.037 -11.25,11.25l0,84c0,6.213 5.037,11.25 11.25,11.25l84,0c6.213,0 11.25,-5.037 11.25,-11.25l0,-84c0,-6.213 -5.037,-11.25 -11.25,-11.25Zm-11.25,84l-61.5,0l0,-61.5l61.5,0l0,61.5Z" fill="#fff" fill-rule="nonzero"/><path d="M60,190.5l36,0c6.213,0 11.25,-5.037 11.25,-11.25c0,-6.213 -5.037,-11.25 -11.25,-11.25l-36,0c-6.213,0 -11.25,5.037 -11.25,11.25c0,6.213 5.037,11.25 11.25,11.25Z" fill="#fff" fill-rule="nonzero"/><path d="M60,238.5l36,0c6.213,0 11.25,-5.037 11.25,-11.25c0,-6.213 -5.037,-11.25 -11.25,-11.25l-36,0c-6.213,0 -11.25,5.037 -11.25,11.25c0,6.213 5.037,11.25 11.25,11.25Z" fill="#fff" fill-rule="nonzero"/></svg>