<?xml version="1.0" encoding="UTF-8" standalone="no"?><!DOCTYPE svg PUBLIC "-//W3C//DTD SVG 1.1//EN" "http://www.w3.org/Graphics/SVG/1.1/DTD/svg11.dtd"><svg width="100%" height="100%" viewBox="0 0 111 111" version="1.1" xmlns="http://www.w3.org/2000/svg" xmlns:xlink="http://www.w3.org/1999/xlink" xml:space="preserve" xmlns:serif="http://www.serif.com/" style="fill-rule:evenodd;clip-rule:evenodd;stroke-linejoin:round;stroke-miterlimit:1.41421;"><path d="M47.655,63.133c-10.629,-0.038 -29.261,-0.076 -37.964,-0.114c-1.906,-0.106 -3.601,-0.847 -4.819,-2.065c-1.271,-1.271 -2.065,-3.019 -2.012,-4.978c0.053,-1.748 0.741,-3.496 2.065,-4.819c1.324,-1.324 3.072,-2.013 4.872,-2.013l39.4,0l0,-39.4c0,-1.8 0.689,-3.548 2.012,-4.872c1.324,-1.324 3.072,-2.012 4.873,-2.012c1.8,0 3.548,0.688 4.872,2.012c1.324,1.324 2.012,3.072 2.012,4.872l0,37.744c10.629,0.038 29.261,0.076 37.964,0.114c1.907,0.106 3.601,0.848 4.819,2.066c1.271,1.271 2.066,3.018 2.013,4.978c-0.053,1.747 -0.742,3.495 -2.066,4.819c-1.324,1.324 -3.071,2.012 -4.872,2.012l-39.4,0l0,39.4c0,1.801 -0.688,3.548 -2.012,4.872c-1.324,1.324 -3.072,2.013 -4.872,2.013c-1.801,0 -3.548,-0.689 -4.872,-2.013c-1.324,-1.324 -2.013,-3.071 -2.013,-4.872l0,-37.744Z"/></svg>